Format : Matroska
File size : 753 MiB
Duration : 2h 8mn
Overall bit rate : 818 Kbps
Encoded date : UTC 2010-10-30 05:21:49
Writing application : mkvmerge v4.2.0 ('No Talking') built on Jul 28 2010 18:38:23
Writing library : libebml v1.0.0 + libmatroska v1.0.0

Video
ID : 1
Format : AVC
Format/Info : Advanced Video Codec
Format profile : High@L4.0
Format settings, CABAC : Yes
Format settings, ReFrames : 8 frames
Muxing mode : Header stripping
Codec ID : V_MPEG4/ISO/AVC
Duration : 2h 8mn
Bit rate : 721 Kbps
Width : 1 280 pixels
Height : 544 pixels
Display aspect ratio : 2.35:1
Frame rate : 23.976 fps
Color space : YUV
Chroma subsampling : 4:2:0
Bit depth : 8 bits
Scan type : Progressive
Bits/(Pixel*Frame) : 0.043
Stream size : 649 MiB (86%)
Title : imkhan
Writing library : x264 core 98 r1649 20cbe10
Encoding settings : cabac=1 / ref=8 / deblock=1:-1:-1 / analyse=0x3:0x133 / me=umh / subme=9 / psy=1 / psy_rd=1.00:0.00 / mixed_ref=1 / me_range=24 / chroma_me=1 / trellis=2 / 8x8dct=1 / cqm=0 / deadzone=21,11 / fast_pskip=0 / chroma_qp_offset=-2 / threads=16 / sliced_threads=0 / nr=0 / decimate=1 / interlaced=0 / constrained_intra=0 / bframes=3 / b_pyramid=2 / b_adapt=2 / b_bias=0 / direct=3 / weightb=1 / weightp=0 / keyint=250 / keyint_min=25 / scenecut=40 / intra_refresh=0 / rc_lookahead=60 / rc=2pass / mbtree=1 / bitrate=721 / ratetol=1.0 / qcomp=0.60 / qpmin=10 / qpmax=51 / qpstep=4 / cplxblur=20.0 / qblur=0.5 / ip_ratio=1.40 / aq=1:1.00
Language : Hindi

Audio #1
ID : 2
Format : MPEG Audio
Format version : Version 2
Format profile : Layer 3
Mode : Joint stereo
Mode extension : MS Stereo
Muxing mode : Header stripping
Codec ID : A_MPEG/L3
Codec ID/Hint : MP3
Duration : 2h 8mn
Bit rate mode : Constant
Bit rate : 64.0 Kbps
Channel(s) : 2 channels
Sampling rate : 22.05 KHz
Compression mode : Lossy
Stream size : 58.9 MiB (8%)
Title : imkhan
Writing library : LAME3.98.2
Language : Hindi

Audio #2
ID : 3
Format : MPEG Audio
Format version : Version 2.5
Format profile : Layer 3
Mode : Joint stereo
Mode extension : MS Stereo
Muxing mode : Header stripping
Codec ID : A_MPEG/L3
Codec ID/Hint : MP3
Duration : 2h 8mn
Bit rate mode : Constant
Bit rate : 32.0 Kbps
Channel(s) : 2 channels
Sampling rate : 11.025 KHz
Compression mode : Lossy
Stream size : 29.4 MiB (4%)
Title : imkhan
Writing library : LAME3.98.2
Language : English


 
http://img842.imageshack.us/img842/1997/19636757932152351398.png
 
http://img593.imageshack.us/img593/666/70152138857095338922.png

 
http://img35.imageshack.us/img35/7781/83422864444154660802.png